<svg xmlns="http://www.w3.org/2000/svg" viewBox="0 0 26 26" fill="currentColor">
  <path fill="currentColor" d="M12.9613 3.8704c0.6191,-1.0476 1.2752,-1.8786 2.0564,-2.4959 1.0839,-0.8571 2.3701,-1.2858 4.0692,-1.2858 1.8794,0 3.5841,0.7558 4.8194,1.9766 1.2383,1.2243 2.0049,2.9146 2.0049,4.7792 0,3.2025 -1.5894,6.3649 -3.973,9.506 -2.3244,3.0633 -5.4063,6.1092 -8.4879,9.1548l-0.489 0.4834 -0.489 -0.4834c-3.0816,-3.0456 -6.1634,-6.0915 -8.4876,-9.1548 -2.3838,-3.1411 -3.9733,-6.3035 -3.9733,-9.506 0,-1.8646 0.7666,-3.5552 2.005,-4.7792 1.2349,-1.2206 2.9397,-1.9766 4.8196,-1.9766 1.6991,0 2.985,0.4287 4.0689,1.2858 0.7812,0.6173 1.4373,1.4483 2.0564,2.4959z"/>
</svg>
