<svg xmlns="http://www.w3.org/2000/svg" viewBox="0 0 1024 199" fill="none" role="img" aria-label="muru">
  <path fill="#5d6b3a" transform="translate(1,12)" d="M0 0 C12.21 0 24.42 0 37 0 C37.66 4.95 38.32 9.9 39 15 C44.94 33.33 55.15 46.47 72 56 C90.96 65.21 112.37 66.49 132.34 59.9 C149.7 52.98 164.25 41.28 172.2 24.01 C175.33 16.15 176.6 8.43 178 0 C190.21 0 202.42 0 215 0 C215 57.75 215 115.5 215 175 C202.79 175 190.58 175 178 175 C178 142.66 178 110.32 178 77 C173.71 79.97 169.42 82.94 165 86 C138.66 101.66 108.52 105.45 78.85 98.5 C71.17 96.53 63.94 93.72 56.81 90.25 C56.22 89.96 55.63 89.68 55.02 89.38 C48.17 85.87 42.45 81.47 36 77 C36 109.34 36 141.68 36 175 C24.12 175 12.24 175 0 175 C0 117.25 0 59.5 0 0 Z" />
  <path fill="#5d6b3a" transform="translate(270,12)" d="M0 0 C12.21 0 24.42 0 37 0 C37.01 2.58 37.02 5.16 37.03 7.82 C37.06 16.41 37.12 25 37.18 33.59 C37.22 38.79 37.26 43.99 37.27 49.2 C37.29 54.23 37.32 59.26 37.37 64.29 C37.38 66.2 37.39 68.1 37.39 70.01 C37.41 92.95 42.22 113.04 58.9 129.92 C72.32 142.31 87.97 148.17 106 148.25 C107.07 148.27 108.15 148.29 109.25 148.31 C119.91 148.36 129.58 146.3 139.06 141.38 C139.4 141.2 139.4 141.2 141.11 140.32 C157.1 131.8 168.43 117.83 174.12 100.62 C177.18 89.41 177.6 78.77 177.61 67.19 C177.62 65.24 177.64 63.29 177.66 61.34 C177.7 56.26 177.72 51.18 177.74 46.11 C177.76 40.91 177.8 35.7 177.84 30.5 C177.91 20.33 177.96 10.17 178 0 C190.21 0 202.42 0 215 0 C215.09 11.24 215.16 22.48 215.21 33.72 C215.23 38.95 215.26 44.17 215.3 49.39 C215.35 54.45 215.37 59.51 215.38 64.56 C215.39 66.47 215.4 68.39 215.42 70.3 C215.79 103.34 206.13 131.88 182.98 156.08 C163.74 175.42 137.57 185.93 110.46 186.24 C78.88 186.32 52.6 176.47 30.07 154.12 C6.95 130.43 -0.37 101.32 -0.2 69.14 C-0.19 67.14 -0.19 65.14 -0.19 63.14 C-0.18 57.91 -0.16 52.68 -0.14 47.46 C-0.12 42.11 -0.11 36.76 -0.1 31.41 C-0.08 20.94 -0.04 10.47 0 0 Z" />
  <path fill="#5d6b3a" transform="translate(809,12)" d="M0 0 C11.88 0 23.76 0 36 0 C36.04 5.88 36.07 11.76 36.11 17.81 C36.14 21.57 36.17 25.32 36.21 29.08 C36.26 35.02 36.31 40.96 36.35 46.9 C36.37 51.7 36.41 56.5 36.46 61.3 C36.48 63.12 36.49 64.93 36.5 66.75 C36.55 81.24 36.99 95.95 44 109 C44.4 109.85 44.79 110.69 45.2 111.56 C53.58 128.5 68.36 139.12 85.59 146.04 C102.56 151.36 123.84 149.47 139.5 141.31 C146.48 137.45 152.4 132.66 158 127 C158.62 126.41 159.25 125.82 159.89 125.21 C172.66 112.15 177.07 93.05 177.21 75.38 C177.22 74.56 177.23 73.74 177.24 72.89 C177.27 70.21 177.29 67.53 177.32 64.84 C177.34 62.97 177.36 61.1 177.38 59.23 C177.43 54.32 177.48 49.42 177.53 44.51 C177.59 38.61 177.66 32.72 177.72 26.82 C177.82 17.88 177.91 8.94 178 0 C190.21 0 202.42 0 215 0 C215.12 20.66 215.12 20.66 215.15 29.59 C215.16 35.65 215.19 41.7 215.23 47.75 C215.26 52.64 215.28 57.53 215.28 62.41 C215.29 64.26 215.3 66.11 215.32 67.96 C215.45 83.84 214.94 100.75 208.94 115.69 C208.79 116.07 208.79 116.07 208.04 118.01 C202.64 131.38 195.26 142.86 185 153 C184.58 153.42 184.58 153.42 182.46 155.56 C161.62 176.27 136.2 186.13 107 186.25 C106.38 186.26 106.38 186.26 103.25 186.31 C75.98 186.43 50.17 174.24 30.88 155.31 C10.17 134.38 -0.42 107.3 -0.34 78.08 C-0.32 76.08 -0.31 74.07 -0.29 72.07 C-0.29 69.98 -0.28 67.9 -0.28 65.81 C-0.27 60.36 -0.24 54.91 -0.21 49.46 C-0.18 43.89 -0.16 38.31 -0.15 32.73 C-0.11 21.82 -0.06 10.91 0 0 Z" />
  <path fill="#5d6b3a" transform="translate(713.6875,23.375)" d="M0 0 C21.16 18.01 36.67 41.6 40.31 69.62 C40.31 74.58 40.31 79.53 40.31 84.62 C28.1 84.62 15.89 84.62 3.31 84.62 C2.98 81.98 2.98 81.98 1.31 68.62 C-2.98 51.03 -13.35 35.48 -28.69 25.62 C-45.37 16.28 -64.42 11.11 -83.36 16.16 C-94.59 19.48 -103.65 24.13 -112.69 31.62 C-113.1 31.94 -113.1 31.94 -115.18 33.51 C-127.19 43.63 -134.52 60.32 -136.69 75.62 C-137.25 82.45 -137.18 89.3 -137.2 96.14 C-137.22 98.1 -137.23 100.05 -137.25 102.01 C-137.3 107.11 -137.33 112.21 -137.36 117.31 C-137.39 122.53 -137.43 127.76 -137.48 132.98 C-137.56 143.19 -137.63 153.41 -137.69 163.62 C-149.9 163.62 -162.11 163.62 -174.69 163.62 C-174.69 105.88 -174.69 48.12 -174.69 -11.38 C-162.48 -11.38 -150.27 -11.38 -137.69 -11.38 C-137.36 -6.75 -137.03 -2.13 -136.69 2.62 C-135.33 1.47 -133.97 0.32 -132.56 -0.88 C-121.71 -9.5 -109.84 -15.26 -96.69 -19.38 C-95.6 -19.72 -94.51 -20.06 -93.39 -20.41 C-61.27 -28.51 -25.76 -20.5 0 0 Z" />
</svg>
